<svg width="25" height="25" viewBox="0 0 25 25" fill="none" xmlns="http://www.w3.org/2000/svg">
<path d="M5.62524 4.00488H19.6252V19.9705C19.6252 20.8008 18.6719 21.2694 18.0144 20.7623L16.6836 19.7356C16.3488 19.4773 15.8877 19.4576 15.532 19.6862L13.7068 20.8596C13.0479 21.2831 12.2025 21.2831 11.5437 20.8596L9.71844 19.6862C9.36275 19.4576 8.90168 19.4773 8.56688 19.7356L7.23605 20.7623C6.57862 21.2694 5.62524 20.8008 5.62524 19.9705V4.00488Z" stroke="#C4C4C4" stroke-width="1.5"/>
<path d="M9.62524 10.0049H12.6252" stroke="#C4C4C4" stroke-width="1.5" stroke-linecap="round" stroke-linejoin="round"/>
<path d="M3.62524 4.00488H21.6252" stroke="#C4C4C4" stroke-width="1.5" stroke-linecap="round" stroke-linejoin="round"/>
<path d="M9.62524 14.0049H12.6252" stroke="#C4C4C4" stroke-width="1.5" stroke-linecap="round" stroke-linejoin="round"/>
<path d="M15.6252 10.0049H16.1252" stroke="#C4C4C4" stroke-width="1.5" stroke-linecap="round" stroke-linejoin="round"/>
<path d="M15.6252 14.0049H16.1252" stroke="#C4C4C4" stroke-width="1.5" stroke-linecap="round" stroke-linejoin="round"/>
</svg>
