<svg width="24" height="27" viewBox="0 0 24 27" fill="none" xmlns="http://www.w3.org/2000/svg">
<path d="M16.5002 2.772V0.9C16.5002 0.408 16.0922 0 15.6002 0C15.1082 0 14.7002 0.408 14.7002 0.9V2.7H6.90027V0.9C6.90027 0.408 6.49227 0 6.00027 0C5.50828 0 5.10028 0.408 5.10028 0.9V2.772C1.86027 3.072 0.288275 5.004 0.048275 7.872C0.024275 8.22 0.312275 8.508 0.648275 8.508H20.9522C21.3002 8.508 21.5882 8.208 21.5522 7.872C21.3122 5.004 19.7402 3.072 16.5002 2.772Z" fill="white"/>
<path d="M19.2 16.5C16.548 16.5 14.4 18.648 14.4 21.3C14.4 22.2 14.652 23.052 15.096 23.772C15.924 25.164 17.448 26.1 19.2 26.1C20.952 26.1 22.476 25.164 23.304 23.772C23.748 23.052 24 22.2 24 21.3C24 18.648 21.852 16.5 19.2 16.5ZM21.684 20.784L19.128 23.148C18.96 23.304 18.732 23.388 18.516 23.388C18.288 23.388 18.06 23.304 17.88 23.124L16.692 21.936C16.344 21.588 16.344 21.012 16.692 20.664C17.04 20.316 17.616 20.316 17.964 20.664L18.54 21.24L20.46 19.464C20.82 19.128 21.396 19.152 21.732 19.512C22.068 19.872 22.044 20.436 21.684 20.784Z" fill="white"/>
<path d="M20.4 10.3079H1.2C0.54 10.3079 0 10.8478 0 11.5078V18.8998C0 22.4998 1.8 24.8998 6 24.8998H11.916C12.744 24.8998 13.32 24.0958 13.056 23.3158C12.816 22.6198 12.612 21.8518 12.612 21.2998C12.612 17.6638 15.576 14.6998 19.212 14.6998C19.56 14.6998 19.908 14.7238 20.244 14.7838C20.964 14.8918 21.612 14.3278 21.612 13.6078V11.5198C21.6 10.8478 21.06 10.3079 20.4 10.3079ZM7.452 20.3518C7.224 20.5678 6.912 20.6998 6.6 20.6998C6.288 20.6998 5.976 20.5678 5.748 20.3518C5.532 20.1238 5.4 19.8118 5.4 19.4998C5.4 19.1878 5.532 18.8758 5.748 18.6478C5.868 18.5398 5.988 18.4558 6.144 18.3958C6.588 18.2038 7.116 18.3118 7.452 18.6478C7.668 18.8758 7.8 19.1878 7.8 19.4998C7.8 19.8118 7.668 20.1238 7.452 20.3518ZM7.452 16.1518C7.392 16.1998 7.332 16.2478 7.272 16.2958C7.2 16.3438 7.128 16.3798 7.056 16.4038C6.984 16.4398 6.912 16.4638 6.84 16.4758C6.756 16.4878 6.672 16.4998 6.6 16.4998C6.288 16.4998 5.976 16.3678 5.748 16.1518C5.532 15.9238 5.4 15.6118 5.4 15.2998C5.4 14.9878 5.532 14.6758 5.748 14.4478C6.024 14.1718 6.444 14.0398 6.84 14.1238C6.912 14.1358 6.984 14.1598 7.056 14.1958C7.128 14.2198 7.2 14.2558 7.272 14.3038L7.452 14.4478C7.668 14.6758 7.8 14.9878 7.8 15.2998C7.8 15.6118 7.668 15.9238 7.452 16.1518ZM11.652 16.1518C11.424 16.3678 11.112 16.4998 10.8 16.4998C10.488 16.4998 10.176 16.3678 9.948 16.1518C9.732 15.9238 9.6 15.6118 9.6 15.2998C9.6 14.9878 9.732 14.6758 9.948 14.4478C10.404 14.0038 11.208 14.0038 11.652 14.4478C11.868 14.6758 12 14.9878 12 15.2998C12 15.6118 11.868 15.9238 11.652 16.1518Z" fill="white"/>
</svg>
