<svg width="49" height="48" viewBox="0 0 49 48" fill="none" xmlns="http://www.w3.org/2000/svg">
<circle cx="24.4229" cy="24" r="24" fill="#292929"/>
<circle cx="24.4229" cy="24" r="23" stroke="white" stroke-opacity="0" stroke-width="2"/>
<path d="M28.5608 14.549V12.8276C28.5608 12.3752 28.1856 12 27.7332 12C27.2808 12 26.9056 12.3752 26.9056 12.8276V14.4828H19.7333V12.8276C19.7333 12.3752 19.3581 12 18.9057 12C18.4533 12 18.0781 12.3752 18.0781 12.8276V14.549C15.0988 14.8248 13.6533 16.6014 13.4326 19.2386C13.4105 19.5586 13.6753 19.8234 13.9843 19.8234H32.6546C32.9746 19.8234 33.2394 19.5476 33.2063 19.2386C32.9856 16.6014 31.5401 14.8248 28.5608 14.549Z" fill="#B7B7B7"/>
<path d="M31.0433 27.1724C28.6047 27.1724 26.6295 29.1475 26.6295 31.5862C26.6295 32.4137 26.8612 33.1972 27.2695 33.8593C28.0309 35.1393 29.4323 35.9999 31.0433 35.9999C32.6543 35.9999 34.0557 35.1393 34.8171 33.8593C35.2254 33.1972 35.4571 32.4137 35.4571 31.5862C35.4571 29.1475 33.4819 27.1724 31.0433 27.1724ZM33.3274 31.1117L30.9771 33.2855C30.8226 33.4289 30.613 33.5062 30.4143 33.5062C30.2047 33.5062 29.995 33.4289 29.8295 33.2634L28.7371 32.171C28.4171 31.851 28.4171 31.3213 28.7371 31.0013C29.0571 30.6813 29.5868 30.6813 29.9068 31.0013L30.4364 31.531L32.2019 29.8979C32.533 29.5889 33.0626 29.611 33.3716 29.942C33.6806 30.2731 33.6585 30.7917 33.3274 31.1117Z" fill="#B7B7B7"/>
<path d="M32.1468 21.4785H14.4916C13.8847 21.4785 13.3882 21.975 13.3882 22.5819V29.3792C13.3882 32.6895 15.0434 34.8964 18.9054 34.8964H24.3454C25.1068 34.8964 25.6365 34.1571 25.3937 33.4399C25.173 32.7999 24.9854 32.0936 24.9854 31.5861C24.9854 28.2426 27.7109 25.5171 31.0544 25.5171C31.3744 25.5171 31.6944 25.5392 32.0034 25.5943C32.6654 25.6936 33.2613 25.175 33.2613 24.513V22.593C33.2503 21.975 32.7537 21.4785 32.1468 21.4785ZM20.2406 30.7143C20.0309 30.913 19.744 31.0343 19.4571 31.0343C19.1703 31.0343 18.8834 30.913 18.6737 30.7143C18.4751 30.5047 18.3537 30.2178 18.3537 29.9309C18.3537 29.644 18.4751 29.3571 18.6737 29.1474C18.784 29.0481 18.8944 28.9709 19.0378 28.9157C19.4461 28.7392 19.9316 28.8385 20.2406 29.1474C20.4392 29.3571 20.5606 29.644 20.5606 29.9309C20.5606 30.2178 20.4392 30.5047 20.2406 30.7143ZM20.2406 26.8523C20.1854 26.8964 20.1303 26.9405 20.0751 26.9847C20.0089 27.0288 19.9427 27.0619 19.8765 27.084C19.8103 27.1171 19.744 27.1392 19.6778 27.1502C19.6006 27.1612 19.5234 27.1723 19.4571 27.1723C19.1703 27.1723 18.8834 27.0509 18.6737 26.8523C18.4751 26.6426 18.3537 26.3557 18.3537 26.0688C18.3537 25.7819 18.4751 25.495 18.6737 25.2854C18.9275 25.0316 19.3137 24.9102 19.6778 24.9874C19.744 24.9985 19.8103 25.0205 19.8765 25.0536C19.9427 25.0757 20.0089 25.1088 20.0751 25.153L20.2406 25.2854C20.4392 25.495 20.5606 25.7819 20.5606 26.0688C20.5606 26.3557 20.4392 26.6426 20.2406 26.8523ZM24.1027 26.8523C23.893 27.0509 23.6061 27.1723 23.3192 27.1723C23.0323 27.1723 22.7454 27.0509 22.5358 26.8523C22.3371 26.6426 22.2158 26.3557 22.2158 26.0688C22.2158 25.7819 22.3371 25.495 22.5358 25.2854C22.9551 24.8771 23.6944 24.8771 24.1027 25.2854C24.3013 25.495 24.4227 25.7819 24.4227 26.0688C24.4227 26.3557 24.3013 26.6426 24.1027 26.8523Z" fill="#B7B7B7"/>
</svg>
