<svg width="24" height="20" viewBox="0 0 24 20" fill="none" xmlns="http://www.w3.org/2000/svg">
<path d="M23.6838 10.9512C23.3718 9.91941 22.8559 9.01957 22.172 8.2877C21.2962 7.29186 20.1324 6.60798 18.8246 6.30803C18.1648 3.30857 16.3171 1.14896 13.6896 0.345099C10.8341 -0.542743 7.52266 0.321103 5.44703 2.49271C3.62335 4.40037 3.02346 7.0279 3.73133 9.82343C1.33176 10.4113 0.143974 12.415 0.0119978 14.3226C-1.11759e-08 14.4546 0 14.5746 0 14.6946C0 16.9502 1.47574 19.4817 4.76315 19.7217H17.2169C18.9206 19.7217 20.5523 19.0858 21.8001 17.946C23.7558 16.2303 24.4756 13.5548 23.6838 10.9512Z" fill="#FFC83C" fill-opacity="0.97"/>
</svg>
