<svg width="25" height="24" viewBox="0 0 25 24" fill="none" xmlns="http://www.w3.org/2000/svg">
<path d="M18.009 0H6.003C2.68934 0 0 2.67734 0 5.97899V13.1586V14.3592C0 17.6608 2.68934 20.3382 6.003 20.3382H7.8039C8.12806 20.3382 8.56028 20.5543 8.76438 20.8184L10.5653 23.2076C11.3577 24.2641 12.6543 24.2641 13.4467 23.2076L15.2476 20.8184C15.4757 20.5183 15.8359 20.3382 16.2081 20.3382H18.009C21.3227 20.3382 24.012 17.6608 24.012 14.3592V5.97899C24.012 2.67734 21.3227 0 18.009 0ZM7.2036 12.006C6.53127 12.006 6.003 11.4657 6.003 10.8054C6.003 10.1451 6.54327 9.6048 7.2036 9.6048C7.86393 9.6048 8.4042 10.1451 8.4042 10.8054C8.4042 11.4657 7.87594 12.006 7.2036 12.006ZM12.006 12.006C11.3337 12.006 10.8054 11.4657 10.8054 10.8054C10.8054 10.1451 11.3457 9.6048 12.006 9.6048C12.6663 9.6048 13.2066 10.1451 13.2066 10.8054C13.2066 11.4657 12.6783 12.006 12.006 12.006ZM16.8084 12.006C16.1361 12.006 15.6078 11.4657 15.6078 10.8054C15.6078 10.1451 16.1481 9.6048 16.8084 9.6048C17.4687 9.6048 18.009 10.1451 18.009 10.8054C18.009 11.4657 17.4807 12.006 16.8084 12.006Z" fill="#B7B7B7"/>
</svg>
