<svg width="25" height="25" viewBox="0 0 25 25" fill="none" xmlns="http://www.w3.org/2000/svg">
<path fill-rule="evenodd" clip-rule="evenodd" d="M20.663 2.9303C19.6984 1.96966 18.1349 1.97025 17.171 2.93162L9.71554 10.3686C9.11925 10.9633 8.76868 11.7594 8.7332 12.5993L8.62707 15.112C8.57874 16.2562 9.49641 17.21 10.6455 17.2101L13.1176 17.2102C14.0252 17.2102 14.8944 16.8451 15.5282 16.1976L22.9236 8.61825C23.8677 7.65364 23.8578 6.11173 22.9014 5.15928L20.663 2.9303ZM18.1237 3.88039C18.5619 3.4434 19.2725 3.44313 19.711 3.87979L21.9493 6.10876C22.3841 6.54169 22.3886 7.24256 21.9595 7.68102L20.4742 9.19857L16.6298 5.37028L18.1237 3.88039ZM15.6778 6.31977L10.6683 11.3173C10.3105 11.6741 10.1002 12.1518 10.0789 12.6558L9.97275 15.1685C9.95664 15.5499 10.2625 15.8678 10.6456 15.8678L13.1177 15.8679C13.6623 15.868 14.1838 15.6489 14.564 15.2604L19.5337 10.1595L15.6778 6.31977Z" fill="#C4C4C4"/>
<path d="M21.6252 13.2102V17.2102C21.6252 19.9716 19.3867 22.2102 16.6252 22.2102H8.62524C5.86382 22.2102 3.62524 19.9716 3.62524 17.2102V9.21021C3.62524 6.44878 5.86382 4.21021 8.62524 4.21021H12.6252" stroke="#C4C4C4" stroke-width="1.5" stroke-linecap="round"/>
</svg>
