<svg width="25" height="25" viewBox="0 0 25 25" fill="none" xmlns="http://www.w3.org/2000/svg">
<circle cx="3" cy="3" r="3" transform="matrix(-1 0 0 1 15.6252 9.02417)" stroke="#C4C4C4" stroke-width="1.5"/>
<path d="M17.1254 4.96167L17.5004 4.31215L17.5004 4.31215L17.1254 4.96167ZM17.1253 19.0863L16.7503 18.4368L17.1253 19.0863ZM8.12529 19.0863L7.75029 19.7358H7.75029L8.12529 19.0863ZM8.1253 4.96167L8.5003 5.61119L8.1253 4.96167ZM9.54823 3.03925L8.81754 2.87018L9.54823 3.03925ZM5.93713 18.7644L5.76495 18.0344L5.93713 18.7644ZM5.02825 18.5272L5.59779 18.0392L5.02825 18.5272ZM10.1645 21.7191L10.3485 20.9921L10.1645 21.7191ZM9.54829 21.009L10.279 20.84L9.54829 21.009ZM15.7023 21.009L14.9716 20.84L15.7023 21.009ZM15.0861 21.7191L15.2701 22.4462L15.0861 21.7191ZM20.2223 18.5272L19.6527 18.0392L20.2223 18.5272ZM22.069 8.72706L22.7771 8.47986L22.069 8.72706ZM21.7188 9.70769L21.2419 9.12886L21.7188 9.70769ZM19.3132 5.28367L19.1411 4.55369L19.3132 5.28367ZM21.7188 14.3406L21.2419 14.9195L21.7188 14.3406ZM22.069 15.3213L21.3609 15.0741L22.069 15.3213ZM15.7024 3.03928L14.9717 3.20835L15.7024 3.03928ZM14.9717 3.20835C15.1975 4.18422 15.8131 5.07009 16.7504 5.61119L17.5004 4.31215C16.938 3.98746 16.5691 3.45798 16.4331 2.8702L14.9717 3.20835ZM16.7504 5.61119C17.6113 6.10825 18.5891 6.22497 19.4854 6.01366L19.1411 4.55369C18.602 4.6808 18.0174 4.61067 17.5004 4.31215L16.7504 5.61119ZM22.7771 8.47986C22.3315 7.20354 21.6524 6.03754 20.7915 5.03288L19.6525 6.00888C20.394 6.87421 20.978 7.87745 21.3609 8.97425L22.7771 8.47986ZM21.3752 12.0242C21.3752 11.3248 21.6934 10.7004 22.1957 10.2865L21.2419 9.12886C20.4086 9.81545 19.8752 10.8578 19.8752 12.0242H21.3752ZM22.1957 13.7618C21.6934 13.3479 21.3752 12.7235 21.3752 12.0242H19.8752C19.8752 13.1905 20.4086 14.2329 21.2419 14.9195L22.1957 13.7618ZM20.7918 19.0151C21.6525 18.0106 22.3315 16.8447 22.7771 15.5685L21.3609 15.0741C20.978 16.1708 20.3941 17.1739 19.6527 18.0392L20.7918 19.0151ZM17.5003 19.7358C18.0174 19.4373 18.6021 19.3672 19.1412 19.4943L19.4856 18.0344C18.5892 17.823 17.6113 17.9397 16.7503 18.4368L17.5003 19.7358ZM16.433 21.178C16.569 20.5901 16.9379 20.0606 17.5003 19.7358L16.7503 18.4368C15.813 18.978 15.1973 19.864 14.9716 20.84L16.433 21.178ZM12.6253 22.7742C13.537 22.7742 14.4232 22.6605 15.2701 22.4462L14.9021 20.992C14.1745 21.1762 13.4119 21.2742 12.6253 21.2742V22.7742ZM9.98054 22.4462C10.8274 22.6605 11.7136 22.7742 12.6253 22.7742V21.2742C11.8387 21.2742 11.0761 21.1762 10.3485 20.9921L9.98054 22.4462ZM7.75029 19.7358C8.31274 20.0606 8.68162 20.5902 8.81758 21.178L10.279 20.84C10.0533 19.864 9.43762 18.978 8.50029 18.4368L7.75029 19.7358ZM6.10931 19.4944C6.64852 19.3672 7.23317 19.4373 7.75029 19.7358L8.50029 18.4368C7.63925 17.9397 6.66131 17.823 5.76495 18.0344L6.10931 19.4944ZM2.47346 15.5685C2.91899 16.8447 3.59798 18.0106 4.45871 19.0152L5.59779 18.0392C4.85643 17.1739 4.2725 16.1708 3.88965 15.0741L2.47346 15.5685ZM3.87528 12.0242C3.87528 12.7235 3.55709 13.3479 3.05477 13.7618L4.00861 14.9195C4.84192 14.2329 5.37528 13.1905 5.37528 12.0242H3.87528ZM3.05478 10.2865C3.55709 10.7004 3.87528 11.3248 3.87528 12.0242H5.37528C5.37528 10.8578 4.84192 9.81543 4.00861 9.12885L3.05478 10.2865ZM4.459 5.03284C3.59813 6.03751 2.91904 7.20351 2.47347 8.47984L3.88965 8.97424C4.27255 7.87743 4.85656 6.87418 5.59804 6.00885L4.459 5.03284ZM7.7503 4.31215C7.23322 4.61068 6.64862 4.68081 6.10945 4.55367L5.76518 6.01363C6.66148 6.22498 7.63933 6.10827 8.5003 5.61119L7.7503 4.31215ZM8.81754 2.87018C8.68153 3.45796 8.31268 3.98746 7.7503 4.31215L8.5003 5.61119C9.43752 5.07008 10.0531 4.1842 10.2789 3.20832L8.81754 2.87018ZM12.6253 1.27417C11.7136 1.27417 10.8273 1.38783 9.98046 1.60213L10.3484 3.0563C11.076 2.87219 11.8387 2.77417 12.6253 2.77417V1.27417ZM15.2702 1.60217C14.4233 1.38785 13.537 1.27417 12.6253 1.27417V2.77417C13.4119 2.77417 14.1746 2.8722 14.9022 3.05633L15.2702 1.60217ZM10.2789 3.20832C10.2945 3.14085 10.321 3.09326 10.3415 3.0683C10.3591 3.04686 10.3623 3.05279 10.3484 3.0563L9.98046 1.60213C9.28926 1.77703 8.93235 2.37397 8.81754 2.87018L10.2789 3.20832ZM4.00861 9.12885C3.94772 9.07868 3.91233 9.02441 3.89813 8.98811C3.8862 8.95758 3.89499 8.95895 3.88965 8.97424L2.47347 8.47984C2.20745 9.24183 2.61961 9.92797 3.05478 10.2865L4.00861 9.12885ZM5.76495 18.0344C5.69772 18.0503 5.64345 18.0477 5.61199 18.0403C5.58493 18.034 5.58865 18.0285 5.59779 18.0392L4.45871 19.0152C4.92177 19.5556 5.61374 19.6112 6.10931 19.4944L5.76495 18.0344ZM10.3485 20.9921C10.3624 20.9956 10.3592 21.0015 10.3416 20.9801C10.3211 20.9551 10.2946 20.9075 10.279 20.84L8.81758 21.178C8.93236 21.6743 9.28927 22.2713 9.98054 22.4462L10.3485 20.9921ZM14.9716 20.84C14.956 20.9075 14.9296 20.9551 14.909 20.98C14.8914 21.0015 14.8883 20.9955 14.9021 20.992L15.2701 22.4462C15.9613 22.2713 16.3182 21.6743 16.433 21.178L14.9716 20.84ZM19.6527 18.0392C19.6619 18.0285 19.6656 18.034 19.6385 18.0403C19.6071 18.0476 19.5528 18.0503 19.4856 18.0344L19.1412 19.4943C19.6368 19.6112 20.3288 19.5556 20.7918 19.0151L19.6527 18.0392ZM21.3609 8.97425C21.3555 8.95896 21.3643 8.9576 21.3524 8.98812C21.3382 9.02442 21.3028 9.07869 21.2419 9.12886L22.1957 10.2865C22.6309 9.92798 23.0431 9.24184 22.7771 8.47986L21.3609 8.97425ZM3.88965 15.0741C3.89498 15.0894 3.88619 15.0908 3.89813 15.0602C3.91233 15.0239 3.94772 14.9697 4.00861 14.9195L3.05477 13.7618C2.61961 14.1204 2.20745 14.8065 2.47346 15.5685L3.88965 15.0741ZM19.4854 6.01366C19.5526 5.99781 19.6068 6.00041 19.6383 6.00774C19.6654 6.01404 19.6616 6.01954 19.6525 6.00888L20.7915 5.03288C20.3285 4.49252 19.6367 4.43686 19.1411 4.55369L19.4854 6.01366ZM5.59804 6.00885C5.5889 6.01951 5.58518 6.01401 5.61224 6.00771C5.64369 6.00038 5.69796 5.99778 5.76518 6.01363L6.10945 4.55367C5.61391 4.43682 4.92203 4.49247 4.459 5.03284L5.59804 6.00885ZM21.2419 14.9195C21.3028 14.9696 21.3382 15.0239 21.3524 15.0602C21.3643 15.0907 21.3555 15.0894 21.3609 15.0741L22.7771 15.5685C23.0431 14.8065 22.6309 14.1204 22.1957 13.7618L21.2419 14.9195ZM16.4331 2.8702C16.3183 2.374 15.9614 1.77709 15.2702 1.60217L14.9022 3.05633C14.8884 3.05283 14.8915 3.0469 14.9092 3.06834C14.9297 3.0933 14.9561 3.14089 14.9717 3.20835L16.4331 2.8702Z" fill="#C4C4C4"/>
</svg>
