<svg width="20" height="20" viewBox="0 0 20 20" fill="none" xmlns="http://www.w3.org/2000/svg">
<path d="M19.5667 10.2284C19.5667 9.49743 19.5013 8.79803 19.38 8.12549H9.99121V11.9786L15.3984 11.9798C15.1791 13.2618 14.4733 14.3547 13.3919 15.0833V17.5831H16.6105C18.4899 15.8422 19.5667 13.2688 19.5667 10.2284Z" fill="#4285F4"/>
<path d="M13.3935 15.0832C12.4975 15.688 11.3438 16.0418 9.99401 16.0418C7.38665 16.0418 5.17477 14.2833 4.38265 11.9131H1.0625V14.4912C2.70741 17.7582 6.08823 20 9.99401 20C12.6935 20 14.9614 19.1114 16.6122 17.5819L13.3935 15.0832Z" fill="#34A853"/>
<path d="M4.07027 10.0006C4.07027 9.33506 4.1811 8.6917 4.38292 8.08688V5.50879H1.06277C0.382644 6.85972 0 8.38462 0 10.0006C0 11.6166 0.38381 13.1415 1.06277 14.4924L4.38292 11.9143C4.1811 11.3095 4.07027 10.6661 4.07027 10.0006Z" fill="#FABB05"/>
<path d="M9.99401 3.95821C11.4674 3.95821 12.7869 4.46612 13.8286 5.45859L16.681 2.60611C14.9486 0.991304 12.69 0 9.99401 0C6.08939 0 2.70741 2.24182 1.0625 5.5088L4.38265 8.08689C5.17477 5.71663 7.38665 3.95821 9.99401 3.95821Z" fill="#E94235"/>
</svg>
