<svg width="32" height="33" viewBox="0 0 32 33" fill="none" xmlns="http://www.w3.org/2000/svg">
<path fill-rule="evenodd" clip-rule="evenodd" d="M16 32.1807C7.16344 32.1807 0 25.0172 0 16.1807C0 7.34411 7.16344 0.180664 16 0.180664C24.8366 0.180664 32 7.34411 32 16.1807C32 25.0172 24.8366 32.1807 16 32.1807ZM13.7792 16.0772C13.6727 16.1761 13.6727 16.3446 13.7792 16.4436L18.59 20.9108C18.8936 21.1926 18.9111 21.6672 18.6293 21.9707C18.3474 22.2742 17.8729 22.2918 17.5693 22.0099L12.7585 17.5427C12.0129 16.8504 12.0129 15.6703 12.7585 14.978L17.5693 10.5108C17.8729 10.2289 18.3474 10.2465 18.6293 10.55C18.9111 10.8535 18.8936 11.3281 18.59 11.6099L13.7792 16.0772Z" fill="#292929"/>
</svg>
