<svg width="25" height="25" viewBox="0 0 25 25" fill="none" xmlns="http://www.w3.org/2000/svg">
<path d="M2.80177 20.8232L2.09462 20.5733H2.09462L2.80177 20.8232ZM4.33301 22.3544L4.58289 23.0616H4.58289L4.33301 22.3544ZM7.72092 21.5457L7.35725 22.2016L7.72092 21.5457ZM3.66379 17.3602L4.33079 17.0172L3.66379 17.3602ZM3.73005 18.1961L4.4372 18.446L3.73005 18.1961ZM3.31274 12.7939C3.31274 7.68531 7.45411 3.54395 12.5627 3.54395V2.04395C6.62568 2.04395 1.81274 6.85688 1.81274 12.7939H3.31274ZM4.33079 17.0172C3.68026 15.752 3.31274 14.317 3.31274 12.7939H1.81274C1.81274 14.5611 2.23972 16.2307 2.99678 17.7031L4.33079 17.0172ZM3.50892 21.073L4.4372 18.446L3.0229 17.9463L2.09462 20.5733L3.50892 21.073ZM4.08314 21.6473C3.72646 21.7733 3.38289 21.4297 3.50892 21.073L2.09462 20.5733C1.54847 22.1189 3.0373 23.6077 4.58289 23.0616L4.08314 21.6473ZM6.60573 20.7559L4.08314 21.6473L4.58289 23.0616L7.10548 22.1702L6.60573 20.7559ZM12.5627 22.0439C10.9367 22.0439 9.41072 21.625 8.08458 20.8898L7.35725 22.2016C8.90026 23.0571 10.6758 23.5439 12.5627 23.5439V22.0439ZM21.8127 12.7939C21.8127 17.9026 17.6714 22.0439 12.5627 22.0439V23.5439C18.4998 23.5439 23.3127 18.731 23.3127 12.7939H21.8127ZM12.5627 3.54395C17.6714 3.54395 21.8127 7.68531 21.8127 12.7939H23.3127C23.3127 6.85688 18.4998 2.04395 12.5627 2.04395V3.54395ZM7.10548 22.1702C7.17097 22.147 7.26284 22.1493 7.35725 22.2016L8.08458 20.8898C7.64897 20.6483 7.11164 20.5771 6.60573 20.7559L7.10548 22.1702ZM2.99678 17.7031C3.04415 17.7953 3.04518 17.8832 3.0229 17.9463L4.4372 18.446C4.60908 17.9596 4.54988 17.4434 4.33079 17.0172L2.99678 17.7031Z" fill="#C4C4C4"/>
<circle cx="7.61273" cy="12.8438" r="1.25" fill="#C4C4C4"/>
<circle cx="12.6127" cy="12.8438" r="1.25" fill="#C4C4C4"/>
<circle cx="17.6127" cy="12.8438" r="1.25" fill="#C4C4C4"/>
</svg>
