<svg width="17" height="23" viewBox="0 0 17 23" fill="none" xmlns="http://www.w3.org/2000/svg">
<path d="M8.00891 0.414795C3.59761 0.414795 0.000259399 4.01215 0.000259399 8.4235V14.581C0.000259399 18.9924 3.59761 22.5897 8.00891 22.5897C12.4203 22.5897 16.0176 18.9924 16.0176 14.581V8.4235C16.0176 4.01215 12.4203 0.414795 8.00891 0.414795ZM10.871 11.6926C10.7791 12.0471 10.4509 12.2834 10.0964 12.2834C10.0308 12.2834 9.95201 12.2703 9.88636 12.2572C8.5472 11.8896 7.12927 11.8896 5.79011 12.2572C5.3569 12.3753 4.92364 12.1259 4.80548 11.6926C4.68732 11.2725 4.93677 10.8261 5.37003 10.7079C6.98485 10.2616 8.69162 10.2616 10.3065 10.7079C10.7397 10.8261 10.9892 11.2594 10.871 11.6926ZM11.987 8.05589C11.8688 8.38411 11.5669 8.58105 11.2387 8.58105C11.1467 8.58105 11.0548 8.56792 10.9629 8.52853C8.9542 7.79331 6.74853 7.79331 4.73984 8.52853C4.31971 8.68608 3.86019 8.47602 3.70264 8.05589C3.55822 7.64889 3.76829 7.18937 4.18842 7.03182C6.55159 6.17844 9.15114 6.17844 11.5012 7.03182C11.9214 7.18937 12.1314 7.64889 11.987 8.05589Z" fill="#F8C33B"/>
</svg>
