<svg width="24" height="27" viewBox="0 0 24 27" fill="none" xmlns="http://www.w3.org/2000/svg">
<path d="M24 4.29058V19.5437C24 22.2163 21.8268 24.3895 19.1541 24.3895C16.4949 24.3895 14.3082 22.2163 14.3082 19.5437C14.3082 16.8845 16.4949 14.7113 19.1541 14.7113C20.288 14.7113 21.3003 15.1027 22.1237 15.7506V7.71914L9.6918 11.2557V22.1488C9.6918 24.8215 7.50504 26.9947 4.84588 26.9947C2.17321 26.9947 0 24.8215 0 22.1488C0 19.4897 2.17321 17.3164 4.84588 17.3164C5.96625 17.3164 6.97862 17.7079 7.80202 18.3423V6.40981C7.80202 4.42556 9.00336 2.88675 10.9067 2.37382L18.7087 0.241086C20.288 -0.19086 21.6243 -0.0423785 22.5692 0.68653C23.5276 1.40194 24 2.61679 24 4.29058Z" fill="#F8C33B"/>
</svg>
