<svg width="33" height="33" viewBox="0 0 33 33" fill="none" xmlns="http://www.w3.org/2000/svg">
<path fill-rule="evenodd" clip-rule="evenodd" d="M16.0508 0.180665C24.8873 0.180665 32.0508 7.34411 32.0508 16.1807C32.0508 25.0172 24.8873 32.1807 16.0508 32.1807C7.21423 32.1807 0.0507834 25.0172 0.0507826 16.1807C0.0507819 7.34411 7.21423 0.180666 16.0508 0.180665ZM18.2716 16.2842C18.3781 16.1853 18.3781 16.0167 18.2716 15.9178L13.4608 11.4506C13.1572 11.1687 13.1396 10.6942 13.4215 10.3906C13.7034 10.0871 14.1779 10.0695 14.4814 10.3514L19.2923 14.8186C20.0379 15.5109 20.0379 16.691 19.2923 17.3834L14.4814 21.8506C14.1779 22.1324 13.7034 22.1148 13.4215 21.8113C13.1396 21.5078 13.1572 21.0332 13.4608 20.7514L18.2716 16.2842Z" fill="#292929"/>
</svg>
